<?xml version="1.0" standalone="no"?>
<!DOCTYPE svg PUBLIC "-//W3C//DTD SVG 20010904//EN"
 "http://www.w3.org/TR/2001/REC-SVG-20010904/DTD/svg10.dtd">
<svg version="1.0" xmlns="http://www.w3.org/2000/svg"
 width="1024.000000pt" height="1024.000000pt" viewBox="0 0 1024.000000 1024.000000"
 preserveAspectRatio="xMidYMid meet">
<metadata>
Created by potrace 1.14, written by Peter Selinger 2001-2017
</metadata>
<g transform="translate(0.000000,1024.000000) scale(0.100000,-0.100000)"
fill="#000000" stroke="none">
<path d="M4891 9615 c-1 -6 -20 -11 -43 -12 -50 -1 -192 -13 -228 -19 -14 -2
-54 -6 -90 -10 -35 -3 -67 -7 -71 -9 -3 -2 -28 -7 -55 -11 -27 -3 -58 -8 -69
-10 -11 -3 -35 -7 -54 -10 -18 -3 -43 -8 -55 -10 -11 -3 -32 -7 -45 -10 -13
-3 -51 -12 -85 -20 -34 -8 -69 -17 -78 -19 -99 -23 -353 -99 -413 -125 -11 -4
-36 -13 -55 -20 -19 -7 -44 -16 -55 -21 -11 -4 -49 -20 -85 -34 -283 -114
-625 -303 -891 -493 -161 -116 -245 -182 -403 -322 -91 -80 -299 -293 -392
-401 -133 -155 -128 -149 -221 -275 -295 -400 -519 -841 -670 -1319 -19 -60
-36 -117 -38 -125 -2 -8 -18 -71 -35 -140 -17 -69 -33 -136 -36 -150 -2 -14
-9 -48 -15 -76 -17 -89 -35 -200 -44 -279 -3 -27 -8 -61 -10 -75 -5 -35 -18
-187 -19 -232 0 -21 -4 -38 -8 -38 -5 0 -4 -9 2 -20 6 -11 7 -20 3 -20 -11 0
-11 -361 0 -377 5 -8 3 -13 -5 -13 -8 0 -9 -3 -3 -8 6 -4 11 -25 11 -47 2 -46
13 -191 20 -250 2 -22 7 -58 9 -80 5 -41 14 -105 21 -140 2 -11 9 -47 14 -80
122 -710 472 -1468 939 -2035 143 -173 368 -407 506 -525 39 -33 72 -62 75
-65 20 -22 176 -143 275 -214 66 -47 125 -91 132 -96 7 -6 15 -10 19 -10 4 0
21 -11 38 -23 121 -91 518 -299 741 -387 72 -28 138 -55 147 -61 10 -5 25 -9
33 -9 8 0 23 -4 33 -10 37 -21 362 -116 467 -136 51 -10 54 -11 58 -14 1 -1
11 -3 22 -5 11 -2 84 -15 163 -29 79 -14 166 -28 195 -31 29 -3 63 -8 77 -10
27 -4 182 -17 240 -19 20 -1 41 -5 48 -10 7 -4 12 -2 12 6 0 9 3 9 8 2 7 -11
372 -11 457 -1 22 3 74 8 115 12 41 3 91 8 110 10 19 2 59 7 89 10 30 4 63 9
75 11 11 2 38 6 61 9 34 5 95 16 225 41 54 11 299 74 375 98 707 218 1337 597
1860 1121 464 464 812 1007 1040 1620 32 86 109 326 120 374 3 9 15 60 29 114
14 53 27 110 30 125 3 15 7 38 10 52 16 80 46 264 51 315 4 33 9 71 11 85 5
30 17 191 18 242 1 21 3 38 6 38 5 0 5 388 1 400 -1 3 -4 32 -6 65 -10 159
-17 239 -30 325 -2 14 -7 45 -10 70 -11 72 -13 83 -20 125 -21 126 -86 406
-119 508 -7 23 -19 62 -26 87 -20 65 -112 312 -154 407 -173 402 -418 797
-700 1128 -98 115 -112 130 -246 265 -388 389 -818 688 -1330 925 -47 21 -87
40 -90 40 -3 1 -18 7 -35 14 -156 66 -397 147 -595 200 -69 18 -90 23 -160 37
-14 3 -33 7 -42 10 -10 3 -30 7 -45 10 -16 2 -39 7 -53 9 -49 10 -66 13 -114
19 -27 4 -52 9 -55 11 -3 1 -36 6 -72 9 -36 4 -76 9 -90 11 -13 2 -58 7 -99
10 -41 4 -100 8 -130 11 -118 10 -435 11 -447 1 -9 -6 -13 -6 -13 3 0 10 -3
10 -14 1 -11 -9 -15 -9 -19 1 -3 7 -6 8 -6 3z m353 -1710 c139 -40 254 -165
286 -310 7 -32 11 -406 11 -1150 l0 -1102 757 -503 c416 -276 772 -517 791
-534 83 -77 133 -198 130 -311 -6 -172 -131 -341 -291 -396 -73 -25 -197 -19
-263 12 -82 38 -1837 1212 -1872 1253 -40 45 -56 75 -77 146 -15 48 -17 160
-22 925 -11 1755 -12 1614 7 1678 34 114 102 198 207 259 98 56 216 68 336 33z"/>
</g>
</svg>
